<?xml version="1.0" encoding="UTF-8" standalone="no"?>
<!-- Created with Inkscape (http://www.inkscape.org/) -->

<svg
   xmlns:dc="http://purl.org/dc/elements/1.1/"
   xmlns:cc="http://creativecommons.org/ns#"
   xmlns:rdf="http://www.w3.org/1999/02/22-rdf-syntax-ns#"
   xmlns:svg="http://www.w3.org/2000/svg"
   xmlns="http://www.w3.org/2000/svg"
   xmlns:sodipodi="http://sodipodi.sourceforge.net/DTD/sodipodi-0.dtd"
   xmlns:inkscape="http://www.inkscape.org/namespaces/inkscape"
   width="400"
   height="400"
   id="svg2"
   version="1.1"
   inkscape:version="0.48.2 r9819"
   sodipodi:docname="ApusApusKlausRoggel05_silhouette.svg">
  <defs
     id="defs4" />
  <sodipodi:namedview
     id="base"
     pagecolor="#ffffff"
     bordercolor="#666666"
     borderopacity="1.0"
     inkscape:pageopacity="0.0"
     inkscape:pageshadow="2"
     inkscape:zoom="0.98994949"
     inkscape:cx="172.67896"
     inkscape:cy="208.15181"
     inkscape:document-units="px"
     inkscape:current-layer="layer1"
     showgrid="false"
     inkscape:window-width="1366"
     inkscape:window-height="686"
     inkscape:window-x="-7"
     inkscape:window-y="17"
     inkscape:window-maximized="1" />
  <metadata
     id="metadata7">
    <rdf:RDF>
      <cc:Work
         rdf:about="">
        <dc:format>image/svg+xml</dc:format>
        <dc:type
           rdf:resource="http://purl.org/dc/dcmitype/StillImage" />
        <dc:title></dc:title>
      </cc:Work>
    </rdf:RDF>
  </metadata>
  <g
     inkscape:label="Ebene 1"
     inkscape:groupmode="layer"
     id="layer1"
     transform="translate(0,-652.36218)">
    <path
       inkscape:connector-curvature="0"
       id="path3000"
       d="m 280.97077,1016.4638 c 0,-0.6847 0.69604,-3.5534 1.54677,-6.375 2.66629,-8.8434 2.86314,-9.6843 3.44523,-14.71739 0.3125,-2.70205 1.13682,-8.27735 1.83181,-12.3895 1.15389,-6.8273 1.23908,-8.32535 0.981,-17.25 -0.41616,-14.39115 -1.06723,-23.3888 -1.93734,-26.77338 -0.86148,-3.35102 -1.86747,-11.00397 -1.86747,-14.2065 0,-1.15123 -0.31608,-2.70438 -0.70239,-3.45143 -0.38632,-0.74705 -0.95874,-3.92242 -1.27204,-7.05637 -0.31331,-3.13395 -0.986,-6.95531 -1.49488,-8.4919 -1.81645,-5.48495 -3.53069,-11.45233 -3.53069,-12.29054 0,-0.46867 -0.32642,-1.56113 -0.72538,-2.42769 -0.39895,-0.86656 -1.65221,-4.27557 -2.78502,-7.57557 -1.1328,-3.3 -2.52016,-7.2375 -3.083,-8.75 -0.56285,-1.5125 -1.08637,-4.19056 -1.16338,-5.95124 -0.10109,-2.31114 -0.36291,-3.32598 -0.94162,-3.64985 -0.47725,-0.26708 -0.8016,-1.10162 -0.8016,-2.0625 0,-2.33643 -1.13093,-3.60769 -3.85365,-4.33182 -1.318,-0.35054 -3.17218,-1.07618 -4.1204,-1.61254 -2.82676,-1.59895 -8.08842,-3.45133 -11.02595,-3.88171 -2.473,-0.36233 -3.027,-0.2603 -5.5,1.01292 -11.23223,5.7829 -19.69307,9.03165 -28.75,11.03926 -1.375,0.30479 -3.0625,0.85836 -3.75,1.23017 -2.06084,1.11451 -7.05374,3.05364 -10.24885,3.98042 -4.33806,1.25831 -9.70617,3.51967 -10.93733,4.60745 -1.22137,1.07912 -9.87289,6.39845 -13.56382,8.33962 -0.825,0.43389 -2.9625,1.68097 -4.75,2.7713 -3.93376,2.39948 -29.61016,15.23893 -32.54715,16.27516 -1.15122,0.40617 -2.79281,1.16352 -3.64799,1.68299 -1.94823,1.18345 -8.14585,3.64991 -11.91133,4.74034 -1.57105,0.45495 -3.2023,0.9599 -3.625,1.1221 -0.54667,0.20978 -0.76854,-0.02 -0.76854,-0.796 0,-1.82838 16.8279,-17.85917 21.00001,-20.00527 2.3333,-1.20023 5.5,-4.07374 5.5,-4.99078 0,-2.60727 -3.77124,-1.47195 -16.53157,4.97678 -3.00464,1.51846 -9.55877,3.76886 -14.62742,5.0224 -7.09066,1.75362 -6.84102,1.73461 -6.84102,0.52108 0,-1.94222 24.44246,-21.51459 38.75001,-31.02919 2.75,-1.82876 6.49345,-4.32314 8.31877,-5.54306 1.82533,-1.21991 5.14471,-3.34303 7.37639,-4.71803 15.72759,-9.69018 17.4925,-11.19464 26.32076,-22.43668 5.84489,-7.44297 13.13305,-15.55444 16.3919,-18.24361 1.7007,-1.4034 4.62386,-3.96195 6.49592,-5.68567 3.39325,-3.12438 3.40521,-3.14482 3.88066,-6.63404 0.26231,-1.925 0.68408,-4.10845 0.93727,-4.85212 0.29015,-0.8522 0.27159,-2.03575 -0.0502,-3.20113 -0.39468,-1.42939 -0.32096,-2.52468 0.32481,-4.82619 0.45944,-1.63744 0.69247,-3.54643 0.51785,-4.2422 -0.31759,-1.26534 -2.65557,-4.72194 -3.41913,-5.05502 -0.22274,-0.0972 -0.98685,-0.71591 -1.69802,-1.375 -0.71116,-0.65908 -1.59767,-1.19834 -1.97001,-1.19834 -0.37235,0 -0.67699,-0.22982 -0.67699,-0.51072 0,-0.28089 -0.5625,-0.76701 -1.25,-1.08025 -0.6875,-0.31325 -1.25,-0.77779 -1.25,-1.03231 0,-0.51728 -3.56803,-4.24566 -12.01498,-12.55494 -1.91676,-1.88553 -3.48502,-3.71507 -3.48502,-4.06566 0,-0.74104 -2.76952,-2.96039 -4.29644,-3.44293 -0.57554,-0.18189 -2.26304,-1.21854 -3.75,-2.30368 -3.01867,-2.20293 -2.94336,-2.13331 -4.74324,-4.38451 -0.71457,-0.89375 -1.63738,-1.625 -2.05069,-1.625 -0.41331,0 -1.34956,-0.46267 -2.08055,-1.02816 -2.51915,-1.94879 -4.83345,-3.46599 -6.42657,-4.2131 -0.87862,-0.41204 -2.16214,-1.31382 -2.85227,-2.00395 -0.69013,-0.69013 -1.60336,-1.25479 -2.02939,-1.25479 -0.42603,0 -1.84251,-1.01124 -3.14773,-2.2472 -1.5992,-1.51436 -2.81191,-2.24812 -3.71861,-2.25 -0.74002,-10e-4 -1.48666,-0.23121 -1.65919,-0.51037 -0.17254,-0.27917 -1.05616,-0.8178 -1.9636,-1.19695 -0.90745,-0.37915 -2.26877,-1.50075 -3.02516,-2.49242 -0.75639,-0.99168 -1.76715,-1.80306 -2.24613,-1.80306 -0.47899,0 -1.72067,-0.57668 -2.7593,-1.28151 -1.03863,-0.70483 -2.7972,-1.64514 -3.90793,-2.08957 -2.0168,-0.80696 -6.75392,-3.51717 -8.28403,-4.73947 -0.44505,-0.35552 -1.93417,-1.17847 -3.30917,-1.82879 -1.37501,-0.65032 -3.28751,-1.57679 -4.25001,-2.05883 -0.9625,-0.48203 -2.48351,-1.03552 -3.38003,-1.22996 -1.74189,-0.37779 -3.72163,-1.2022 -6.75718,-2.81383 -1.03797,-0.55108 -2.11658,-0.8602 -2.3969,-0.68695 -0.28033,0.17325 -0.78109,0.10938 -1.11279,-0.14194 -0.72031,-0.54576 -3.98131,-1.69641 -8.1031,-2.85921 -1.65,-0.46548 -3.449996,-1.02937 -3.999996,-1.25308 -1.697735,-0.69055 -5.26725,-1.59731 -10.916905,-2.77321 -2.979295,-0.6201 -5.668045,-1.3786 -5.975,-1.68555 -0.30695,-0.30695 -1.274755,-0.5581 -2.15068,-0.5581 -2.12646,0 -6.74764,-1.52304 -7.055515,-2.32534 -0.135155,-0.35221 0.28163,-1.58539 0.926185,-2.7404 0.992905,-1.77925 1.706535,-2.32254 4.671915,-3.55679 4.980345,-2.07291 6.378935,-2.40972 12,-2.88985 6.36025,-0.54326 16.547816,-1.19316 18.499996,-1.18016 5.18321,0.0345 17.93638,1.29973 22.75001,2.25701 1.5125,0.30079 4.8875,0.84979 7.5,1.22001 9.57091,1.35631 10.41062,1.51891 11.19163,2.16708 0.4376,0.36318 1.16452,0.51876 1.61537,0.34575 0.45086,-0.17301 1.07248,-0.11236 1.38137,0.13478 0.70836,0.56674 8.0993,2.78579 12.06163,3.62138 1.65,0.34796 3.45,0.89275 4,1.21064 0.55,0.31789 2.0125,0.86014 3.25,1.20499 1.2375,0.34486 2.925,0.91144 3.75,1.25907 0.825,0.34764 2.85,1.0189 4.5,1.4917 1.65,0.4728 4.2375,1.38693 5.75,2.0314 1.5125,0.64447 7.25,2.90956 12.75,5.03354 5.5,2.12397 15.20768,6.41629 21.57262,9.53848 6.36495,3.12219 11.70088,5.67671 11.85764,5.67671 0.15675,0 1.34937,0.675 2.65026,1.5 1.30089,0.825 2.74812,1.5 3.21606,1.5 0.85272,0 5.55264,2.28125 8.01749,3.89152 0.72273,0.47217 2.46626,1.53348 3.87449,2.35848 1.40823,0.825 2.56065,1.66099 2.56093,1.85776 0.001,0.66243 2.72507,3.15047 6.52781,5.96208 4.25876,3.14878 8.04296,7.64363 10.42746,12.38568 0.88653,1.76304 2.24256,3.79467 3.0134,4.51474 1.81199,1.69265 3.2627,7.48138 2.52208,10.06378 -0.26706,0.93117 -0.35895,2.09194 -0.20421,2.5795 0.3413,1.07533 2.22498,1.16339 4.1138,0.19231 1.95738,-1.00633 13.2987,-4.34752 17.10017,-5.03777 3.9338,-0.71427 10.69265,-0.60559 13.90074,0.22353 3.17181,0.81975 7.12659,2.88802 8.35821,4.37117 0.64405,0.7756 2.1811,1.53494 4.25,2.09962 2.59,0.7069 3.27312,1.10068 3.40072,1.96029 0.11305,0.76167 -0.1962,1.211 -1.05934,1.53917 -1.30511,0.4962 -3.35033,2.79184 -3.35033,3.76056 0,0.51072 -2.70691,5.98543 -5.87356,11.87928 -1.03132,1.91952 -11.22618,13.84343 -12.43856,14.54815 -0.37833,0.21991 -0.68788,0.9449 -0.68788,1.61108 0,0.98751 0.57723,1.49689 3.125,2.75764 3.60899,1.7859 5.875,3.75887 5.875,5.11524 0,0.5207 0.76959,2.10986 1.71021,3.53146 2.10259,3.17774 5.3794,10.28523 5.01425,10.87605 -0.14731,0.23835 0.32203,2.07031 1.04297,4.07103 3.09242,8.58185 3.22473,9.2674 3.22875,16.7301 0.002,3.90085 -0.21412,7.66567 -0.48049,8.36627 -0.2689,0.70728 -0.59986,10.7844 -0.74413,22.65755 -0.26878,22.11978 -0.34997,23.99841 -1.56174,36.13373 -1.65018,16.5259 -2.99345,24.93703 -5.78915,36.25003 -1.64115,6.641 -5.60456,19.72505 -6.45835,21.3204 -0.30071,0.56185 -1.00119,2.4071 -1.55663,4.1006 -2.05699,6.2714 -11.56385,24.54734 -15.44061,29.68294 -2.15117,2.8497 -8.45036,8.1461 -9.68839,8.1461 -0.49427,0 -0.77669,-0.4527 -0.77669,-1.2448 z"
       style="fill:#000000" />
    <path
       style="fill:#000000"
       d=""
       id="path2996"
       inkscape:connector-curvature="0" />
  </g>
</svg>
